<?xml version="1.0" standalone="no"?>
<!DOCTYPE svg PUBLIC "-//W3C//DTD SVG 20010904//EN"
 "http://www.w3.org/TR/2001/REC-SVG-20010904/DTD/svg10.dtd">
<svg version="1.0" xmlns="http://www.w3.org/2000/svg"
 width="500.000000pt" height="500.000000pt" viewBox="0 0 500.000000 500.000000"
 preserveAspectRatio="xMidYMid meet">

<g transform="translate(0.000000,500.000000) scale(0.100000,-0.100000)"
fill="#000000" stroke="none">
<path d="M1678 4471 c-279 -90 -428 -408 -316 -674 181 -429 786 -419 947 16
99 268 -53 573 -327 657 -84 26 -224 26 -304 1z m269 -173 c69 -25 149 -97
182 -162 80 -161 14 -366 -142 -444 -139 -69 -293 -42 -399 70 -166 174 -87
470 144 542 66 21 149 19 215 -6z"/>
<path d="M3718 3770 c-374 -68 -635 -394 -615 -769 16 -316 212 -568 522 -672
61 -21 88 -24 215 -23 128 0 154 3 222 26 125 42 204 91 303 192 73 73 99 108
133 176 208 425 -1 910 -453 1049 -78 24 -250 36 -327 21z m300 -196 c177 -59
305 -193 367 -384 27 -82 24 -235 -5 -320 -70 -201 -225 -344 -422 -386 -288
-61 -567 105 -664 396 -28 85 -26 234 5 329 100 305 417 465 719 365z"/>
<path d="M3431 3144 c-29 -24 -31 -31 -31 -88 0 -174 134 -360 307 -426 33
-13 91 -25 134 -28 68 -4 79 -2 98 17 41 41 40 108 -4 137 -13 9 -53 19 -88
24 -145 18 -245 118 -267 267 -11 74 -17 88 -45 107 -35 23 -69 20 -104 -10z"/>
<path d="M1490 3046 c-273 -49 -502 -168 -694 -360 -504 -506 -496 -1320 17
-1819 170 -165 385 -281 617 -332 103 -22 336 -31 441 -16 368 53 688 256 895
567 216 324 267 748 135 1128 -140 405 -508 726 -941 821 -102 22 -371 29
-470 11z m360 -171 c172 -23 314 -76 453 -168 226 -150 376 -357 457 -627 25
-85 32 -129 37 -235 7 -157 -5 -258 -47 -391 -167 -525 -687 -847 -1229 -759
-494 80 -874 487 -921 987 -48 512 273 998 760 1153 163 51 316 64 490 40z"/>
<path d="M1639 2561 c-36 -36 -38 -79 -6 -116 20 -23 34 -28 112 -37 168 -18
299 -81 403 -193 105 -112 157 -226 173 -379 11 -110 30 -136 94 -136 31 0 47
6 65 25 22 23 23 30 17 122 -10 171 -74 326 -193 466 -138 162 -379 277 -579
277 -49 0 -60 -4 -86 -29z"/>
</g>
</svg>
